<?xml version="1.0" encoding="UTF-8" standalone="no"?>
<!-- Created with Inkscape (http://www.inkscape.org/) -->

<svg
   xmlns:dc="http://purl.org/dc/elements/1.1/"
   xmlns:cc="http://creativecommons.org/ns#"
   xmlns:rdf="http://www.w3.org/1999/02/22-rdf-syntax-ns#"
   xmlns:svg="http://www.w3.org/2000/svg"
   xmlns="http://www.w3.org/2000/svg"
   xmlns:sodipodi="http://sodipodi.sourceforge.net/DTD/sodipodi-0.dtd"
   xmlns:inkscape="http://www.inkscape.org/namespaces/inkscape"
   width="46.883274mm"
   height="92.024811mm"
   viewBox="0 0 46.883274 92.024811"
   version="1.1"
   id="svg4291"
   inkscape:version="0.91+devel r"
   sodipodi:docname="turnip.svg">
  <title
     id="title5049">Turnip (Vegetable)</title>
  <defs
     id="defs4285">
    <clipPath
       clipPathUnits="userSpaceOnUse"
       id="clipPath4884">
      <path
         style="fill:none;fill-rule:evenodd;stroke:#000000;stroke-width:0.73583579px;stroke-linecap:butt;stroke-linejoin:miter;stroke-opacity:1"
         d="m 59.959132,312.99296 h 27.85664 c 0,0 3.679179,-22.60066 12.08873,-24.70306 8.409548,-2.10238 9.460748,11.03754 15.767908,3.67918 6.30717,-7.35836 9.98634,-22.60066 16.29351,-14.71671 6.30716,7.88395 12.08873,12.08873 17.3447,3.67917 5.25597,-8.40955 19.97268,-26.80544 24.17746,-19.97268 4.20478,6.83276 6.83276,17.8703 9.98634,19.97268 3.15358,2.1024 9.46075,-15.2423 13.13993,-9.46074 3.67917,5.78157 7.88395,15.76791 7.88395,15.76791 L 210.80547,275.67558 221.843,247.81893 174.01368,180.54252 73.099057,202.092 Z"
         id="path4886"
         inkscape:connector-curvature="0" />
    </clipPath>
  </defs>
  <sodipodi:namedview
     id="base"
     pagecolor="#ffffff"
     bordercolor="#666666"
     borderopacity="1.0"
     inkscape:pageopacity="0.0"
     inkscape:pageshadow="2"
     inkscape:zoom="1"
     inkscape:cx="225.94936"
     inkscape:cy="236.90308"
     inkscape:document-units="mm"
     inkscape:current-layer="layer1"
     showgrid="false"
     inkscape:snap-global="false"
     fit-margin-top="0"
     fit-margin-left="0"
     fit-margin-right="0"
     fit-margin-bottom="0"
     inkscape:window-width="1855"
     inkscape:window-height="1056"
     inkscape:window-x="65"
     inkscape:window-y="24"
     inkscape:window-maximized="1" />
  <metadata
     id="metadata4288">
    <rdf:RDF>
      <cc:Work
         rdf:about="">
        <dc:format>image/svg+xml</dc:format>
        <dc:type
           rdf:resource="http://purl.org/dc/dcmitype/StillImage" />
        <dc:title>Turnip (Vegetable)</dc:title>
        <cc:license
           rdf:resource="http://creativecommons.org/publicdomain/zero/1.0/" />
        <dc:date>2015-10-12</dc:date>
        <dc:creator>
          <cc:Agent>
            <dc:title>Devonique Scolley &amp; Martin Owens</dc:title>
          </cc:Agent>
        </dc:creator>
        <dc:rights>
          <cc:Agent>
            <dc:title>None Retained</dc:title>
          </cc:Agent>
        </dc:rights>
        <dc:publisher>
          <cc:Agent>
            <dc:title>OpenClipart.org</dc:title>
          </cc:Agent>
        </dc:publisher>
        <dc:source>https://openclipart.org/detail/229772/vector-vegetables</dc:source>
        <dc:subject>
          <rdf:Bag>
            <rdf:li>turnip</rdf:li>
            <rdf:li>vegetable</rdf:li>
            <rdf:li>root</rdf:li>
            <rdf:li>greens</rdf:li>
            <rdf:li>hearty</rdf:li>
            <rdf:li>soup</rdf:li>
            <rdf:li>ingrediant</rdf:li>
            <rdf:li>brassica rapa</rdf:li>
          </rdf:Bag>
        </dc:subject>
        <dc:description>A modified turnip from Devonique</dc:description>
      </cc:Work>
      <cc:License
         rdf:about="http://creativecommons.org/publicdomain/zero/1.0/">
        <cc:permits
           rdf:resource="http://creativecommons.org/ns#Reproduction" />
        <cc:permits
           rdf:resource="http://creativecommons.org/ns#Distribution" />
        <cc:permits
           rdf:resource="http://creativecommons.org/ns#DerivativeWorks" />
      </cc:License>
    </rdf:RDF>
  </metadata>
  <g
     inkscape:label="Layer 1"
     inkscape:groupmode="layer"
     id="layer1"
     transform="translate(21.947019,-93.380664)">
    <g
       id="g4401"
       transform="matrix(0.2842169,-0.09940211,0.09940211,0.2842169,-63.262201,82.90576)"
       style="fill:#f4d7ee">
      <path
         style="opacity:1;fill:#f4d7ee;stroke:none"
         d="m 211.62696,271.00922 a 70.205605,67.680222 0 0 1 -70.2056,67.68022 70.205605,67.680222 0 0 1 -70.205608,-67.68022 70.205605,67.680222 0 0 1 70.205608,-67.68023 70.205605,67.680222 0 0 1 70.2056,67.68023 z"
         id="path4403"
         inkscape:connector-curvature="0" />
      <path
         style="fill:#f4d7ee;fill-rule:evenodd;stroke:none;stroke-width:1px;stroke-linecap:butt;stroke-linejoin:miter;stroke-opacity:1"
         d="m 113.25013,332.56906 c 0,0 26.96358,22.49322 26.96358,29.90697 0,7.41377 -4.11875,12.35628 -3.29501,21.41755 0.82376,9.06127 2.47126,12.35627 3.29501,18.12252 0.82374,5.76627 1.6475,8.23753 1.6475,8.23753 0,0 0.82376,-12.35628 -1.6475,-22.24129 -2.47125,-9.88503 0.82374,-13.18003 2.47126,-19.77004 1.6475,-6.59001 1.85344,-9.26721 2.67718,-15.85722 0.82376,-6.59001 23.49603,-18.94081 23.49603,-18.94081 -3.25057,-8.39229 -52.55221,-9.71943 -55.60805,-0.87521 z"
         id="path4405"
         inkscape:connector-curvature="0"
         sodipodi:nodetypes="cssscssscc" />
    </g>
    <g
       clip-path="url(#clipPath4884)"
       style="fill:#b000dd;fill-opacity:1"
       transform="matrix(0.2842169,-0.09940211,0.09940211,0.2842169,-63.227509,82.893629)"
       id="g4407">
      <path
         inkscape:connector-curvature="0"
         id="path4409"
         d="m 211.62696,271.00922 a 70.205605,67.680222 0 0 1 -70.2056,67.68022 70.205605,67.680222 0 0 1 -70.205608,-67.68022 70.205605,67.680222 0 0 1 70.205608,-67.68023 70.205605,67.680222 0 0 1 70.2056,67.68023 z"
         style="opacity:1;fill:#b000dd;fill-opacity:1;stroke:none" />
      <path
         sodipodi:nodetypes="cssscssscc"
         inkscape:connector-curvature="0"
         id="path4411"
         d="m 113.25013,332.56906 c 0,0 26.96358,22.49322 26.96358,29.90697 0,7.41377 -4.11875,12.35628 -3.29501,21.41755 0.82376,9.06127 2.47126,12.35627 3.29501,18.12252 0.82374,5.76627 1.6475,8.23753 1.6475,8.23753 0,0 0.82376,-12.35628 -1.6475,-22.24129 -2.47125,-9.88503 0.82374,-13.18003 2.47126,-19.77004 1.6475,-6.59001 1.85344,-9.26721 2.67718,-15.85722 0.82376,-6.59001 23.49603,-18.94081 23.49603,-18.94081 -3.25057,-8.39229 -52.55221,-9.71943 -55.60805,-0.87521 z"
         style="fill:#b000dd;fill-opacity:1;fill-rule:evenodd;stroke:none;stroke-width:1px;stroke-linecap:butt;stroke-linejoin:miter;stroke-opacity:1" />
    </g>
    <path
       sodipodi:nodetypes="cccccc"
       inkscape:connector-curvature="0"
       id="path4413"
       d="m -8.8111711,129.74063 c 4.204089,0.0851 8.70144703,-0.56718 12.450572,-4.42813 l -0.139972,0.10823 0.453694,0.0141 c -3.24982697,4.27804 -8.801947,4.67046 -13.616967,5.11209 z"
       style="fill:#ccaaff;fill-rule:evenodd;stroke:none;stroke-width:0.26458332px;stroke-linecap:butt;stroke-linejoin:miter;stroke-opacity:1" />
    <path
       sodipodi:nodetypes="csccc"
       inkscape:connector-curvature="0"
       id="path4415"
       d="m -6.4973451,128.36914 c 0,0 1.702819,0.0751 2.345246,-0.48491 0.642428,-0.56 0.88895,-0.81387 0.88895,-0.81387 -1.064951,1.52219 -2.19125,1.58938 -3.866293,1.56387 z"
       style="fill:#e5d5ff;fill-rule:evenodd;stroke:none;stroke-width:0.26458332px;stroke-linecap:butt;stroke-linejoin:miter;stroke-opacity:1" />
    <path
       sodipodi:nodetypes="cccc"
       inkscape:connector-curvature="0"
       id="path4417"
       d="m 0.91702093,125.67783 c -0.802373,1.49648 -2.06777703,1.88414 -4.17454503,2.65815 2.021639,-0.41873 3.51763103,-1.14688 5.373291,-2.82592 z"
       style="fill:#e5d5ff;fill-rule:evenodd;stroke:none;stroke-width:0.26458332px;stroke-linecap:butt;stroke-linejoin:miter;stroke-opacity:1" />
    <path
       sodipodi:nodetypes="cccc"
       inkscape:connector-curvature="0"
       id="path4419"
       d="m -0.28935407,125.90099 c -0.80304403,0.80567 -2.37011703,2.30919 -4.54375903,2.52527 1.88771,0.19822 4.12789403,-1.5024 5.27250303,-2.49155 z"
       style="fill:#e5d5ff;fill-rule:evenodd;stroke:none;stroke-width:0.26458332px;stroke-linecap:butt;stroke-linejoin:miter;stroke-opacity:1" />
    <path
       sodipodi:nodetypes="cccc"
       inkscape:connector-curvature="0"
       id="path4421"
       d="m -7.6542011,129.04382 c 1.188773,0.0615 3.671861,0.13369 5.553782,-0.74336 -1.853481,1.19379 -4.590119,1.13547 -6.334472,1.21791 z"
       style="fill:#e3d7f4;fill-rule:evenodd;stroke:none;stroke-width:0.26458332px;stroke-linecap:butt;stroke-linejoin:miter;stroke-opacity:1" />
    <path
       sodipodi:nodetypes="cccccc"
       inkscape:connector-curvature="0"
       id="path4423"
       d="m -5.2860721,127.59582 c -5.4201849,-3.12815 -4.9376959,-4.39537 -7.2946329,-9.35234 -0.567346,-1.14283 -2.593502,-7.89488 -2.593502,-7.89488 0,0 3.49958,7.98647 4.262456,9.07156 2.8038929,4.7933 4.5367289,5.16618 7.6909279,7.36953 -0.270355,1.075 -1.116008,1.04045 -2.065249,0.80613 z"
       style="fill:#5aa02c;fill-rule:evenodd;stroke:none;stroke-width:0.26458332px;stroke-linecap:butt;stroke-linejoin:miter;stroke-opacity:1" />
    <path
       style="fill:#4f8c27;fill-opacity:1;fill-rule:evenodd;stroke:none;stroke-width:0.26458332px;stroke-linecap:butt;stroke-linejoin:miter;stroke-opacity:1"
       d="m -0.49538007,126.08798 c 2.28911697,-5.82441 1.122005,-6.5147 -0.124222,-11.86013 -0.26858,-1.24731 -2.89227203,-7.79039 -2.89227203,-7.79039 0,0 2.240778,8.42673 2.32047,9.75076 0.79468703,5.49599 -0.290884,7.69287 -1.421468,10.5565 0.88141,0.67218 1.5212,0.11811 2.11749203,-0.65674 z"
       id="path4425"
       inkscape:connector-curvature="0"
       sodipodi:nodetypes="cccccc" />
    <path
       sodipodi:nodetypes="cccccc"
       inkscape:connector-curvature="0"
       id="path4427"
       d="m -4.1211881,126.90421 c -2.756556,-4.6155 -3.476747,-4.1133 -4.884227,-9.41856 -0.348041,-1.22751 -1.6717269,-9.35007 -1.6717269,-9.35007 0,0 3.2989759,7.7299 3.8498199,8.93654 1.876874,5.22635 2.542222,7.42015 4.884224,9.41856 -0.462992,1.00714 -1.287952,0.81803 -2.17809,0.41353 z"
       style="fill:#519028;fill-opacity:1;fill-rule:evenodd;stroke:none;stroke-width:0.26458332px;stroke-linecap:butt;stroke-linejoin:miter;stroke-opacity:1" />
    <path
       style="fill:#5aa02c;fill-rule:evenodd;stroke:none;stroke-width:0.26458332px;stroke-linecap:butt;stroke-linejoin:miter;stroke-opacity:1"
       d="m -1.7060551,126.05954 c -0.720897,-5.32746 0.155305,-5.38358 -2.050489,-10.40963 -0.492866,-1.17687 -4.520063,-8.35389 -4.520063,-8.35389 0,0 2.237743,8.10104 2.559003,9.38798 1.789543,5.2569 2.636498,7.38718 2.050494,10.40963 0.98977,0.49906 1.517049,-0.16298 1.961055,-1.03409 z"
       id="path4429"
       inkscape:connector-curvature="0"
       sodipodi:nodetypes="cccccc" />
    <path
       sodipodi:nodetypes="cscsccsccscsccscccscccscccscc"
       inkscape:connector-curvature="0"
       id="path4431"
       d="m -1.0908441,102.39504 c 0.93950703,-0.2907 2.131322,-0.21965 2.531167,0.27032 0.399869,0.49001 -0.76049797,1.26901 -0.76049797,1.26901 0,0 1.11608597,-0.34287 1.62908697,0.0873 0.513007,0.43017 1.023004,1.52222 0.169191,1.60257 -0.853901,0.0803 -1.57252997,-0.11728 -1.57252997,-0.11728 0,0 2.62755597,0.79714 2.06727197,1.46498 -0.560285,0.66785 -1.823914,0.88241 -2.33003497,0.48987 -0.506109,-0.39254 0.04819,0.26338 0.04819,0.26338 0,0 1.37080597,1.04935 0.74856697,1.37855 -0.62223897,0.3292 -1.99604597,-0.0583 -1.99604597,-0.0583 0,0 2.58865797,1.60184 1.64078397,2.18585 -0.94789097,0.58402 -1.84997197,0.40095 -2.265092,0.16664 -1.101388,0.85686 -0.654545,-0.0559 -0.979303,-0.26597 0,0 -2.100791,-0.29176 -1.96401,-0.90059 0.136766,-0.60885 0.793435,-0.74991 0.793435,-0.74991 0,0 -1.85385,-0.29851 -1.406718,-0.90654 0.447157,-0.60798 1.096934,-0.78668 1.096934,-0.78668 0,0 -2.564109,-0.78943 -1.581804,-1.18532 0.982287,-0.39588 1.6168,-0.31888 1.6168,-0.31888 0,0 -2.223196,-1.29994 -1.305848,-1.37259 0.917361,-0.0726 1.445631,0.10188 1.445631,0.10188 0,0 -1.766772,-0.83986 -0.9045,-1.2135 0.862293,-0.37365 1.546485,-0.36421 1.546485,-0.36421 0,0 -1.555767,-0.70387 -0.820402,-1.09293 0.735385,-0.38905 1.22773,-0.0718 1.22773,-0.0718 0,0 -1.366435,-1.64783 0.275058,-1.54865 1.83565803,0.11086 1.050541,1.67272 1.050541,1.67272 z"
       style="fill:#008000;fill-opacity:1;fill-rule:evenodd;stroke:none;stroke-width:0.26458332px;stroke-linecap:butt;stroke-linejoin:miter;stroke-opacity:1" />
    <path
       sodipodi:nodetypes="cscsccsccscsccscccscccscccscc"
       inkscape:connector-curvature="0"
       id="path4433"
       d="m -15.727837,96.478696 c -1.021797,-0.0197 -2.056138,0.608101 -2.125604,1.510491 -0.06947,0.902449 1.442582,1.54998 1.442582,1.54998 0,0 -1.212376,-0.0197 -1.419669,0.843543 -0.207299,0.86324 -0.01781,2.70742 0.801349,2.45248 0.819216,-0.25501 1.350735,-0.86324 1.350735,-0.86324 0,0 -1.899008,2.33457 -0.995231,3.08013 0.90378,0.74558 2.173052,0.51021 2.396538,-0.29417 0.223478,-0.80435 0.113281,0.41199 0.113281,0.41199 0,0 -0.613542,2.15808 0.144577,2.37393 0.758116,0.21585 1.768456,-0.96127 1.768456,-0.96127 0,0 -1.384744,3.51174 -0.180742,3.96305 1.204015,0.45128 1.909924,-0.21574 2.145411,-0.74541 1.5051399,0.78894 2.2593909,-0.9708 0.7263079,-0.82389 0,0 1.724056,-1.35369 1.23799,-2.19728 -0.486066,-0.84365 -1.163264,-0.76519 -1.163264,-0.76519 0,0 1.496962,-1.25547 0.731014,-1.96187 -0.765947,-0.70632 -1.4593249,-0.68673 -1.4593249,-0.68673 0,0 1.8462809,-2.29532 0.7231909,-2.45234 -1.1230709,-0.15701 -1.6504199,0.23534 -1.6504199,0.23534 0,0 1.2343519,-2.903533 0.362397,-2.609314 -0.871953,0.29426 -1.245262,0.78476 -1.245262,0.78476 0,0 1.095971,-2.02071 0.09455,-2.19733 -1.001429,-0.1766 -1.613884,0.137261 -1.613884,0.137261 0,0 0.986324,-1.726421 0.09038,-1.981521 -0.895962,-0.25509 -1.151816,0.43155 -1.151816,0.43155 0,0 0.253251,-3.04434 -1.170562,-2.17775 -1.592249,0.96903 0.04694,2.94283 0.04694,2.94283 z"
       style="fill:#007900;fill-opacity:1;fill-rule:evenodd;stroke:none;stroke-width:0.26458332px;stroke-linecap:butt;stroke-linejoin:miter;stroke-opacity:1" />
    <path
       style="color:#000000;clip-rule:nonzero;display:inline;overflow:visible;visibility:visible;opacity:0.13300003;isolation:auto;mix-blend-mode:normal;color-interpolation:sRGB;color-interpolation-filters:linearRGB;solid-color:#000000;solid-opacity:1;fill:#000000;fill-opacity:1;fill-rule:nonzero;stroke:none;stroke-width:0.36827779px;stroke-linecap:butt;stroke-linejoin:miter;stroke-miterlimit:4;stroke-dasharray:none;stroke-dashoffset:0;stroke-opacity:1;marker:none;color-rendering:auto;image-rendering:auto;shape-rendering:auto;text-rendering:auto;enable-background:accumulate"
       d="m -14.142874,98.017674 c -0.199085,0.522039 -1.062217,1.625319 0.04754,1.815909 1.404662,-0.220059 -0.912736,1.084557 -0.111104,1.583887 0.967229,0.42645 -0.552321,1.0536 -0.667142,0.6413 0.691094,-0.99445 -0.379079,-1.32518 -1.223182,-1.47536 -1.008816,-0.44826 0.09458,-0.848334 0.397391,-1.299665 0.115713,-0.662678 -0.10347,-0.407644 -0.237709,0.07596 -0.100502,0.04361 -0.0855,-0.05296 -0.05219,-0.178284 -0.0024,0.01601 0.0024,0.02926 0.03462,0.01707 -0.0028,-0.0523 -0.02162,-0.04671 -0.03152,-0.03101 0.05334,-0.195479 0.156824,-0.468254 0.04909,-0.547253 -0.279297,0.154244 -0.575027,0.459761 -0.914157,0.686263 0.244644,0.147177 0.440282,0.232544 0.440282,0.232544 0,0 -1.212257,-0.01937 -1.41955,0.843885 -0.01651,0.0688 -0.02635,0.15184 -0.03772,0.23151 0.149878,0.0439 0.317079,0.0515 0.487309,5.3e-4 -0.359796,0.41169 -0.273023,2.02465 0.751375,1.26814 0.481094,-0.51328 1.085895,-0.25434 0.702283,0.32091 0.147482,-0.12818 0.248563,-0.23203 0.248563,-0.23203 0,0 -0.138761,0.17395 -0.32091,0.43356 0.08207,0.30687 -0.123603,0.44268 -0.358635,0.55966 -0.133475,0.22433 -0.262663,0.46109 -0.363286,0.70383 1.760323,1.0786 3.65072,-2.98761 1.903761,1.15032 -0.191103,0.14931 -0.458258,0.41648 -0.618569,0.68213 0.55344,-0.007 1.03029,-0.27999 1.159103,-0.74362 0.22348,-0.80436 0.113172,0.41186 0.113172,0.41186 0,0 -0.145314,0.5166 -0.206705,1.06867 0.321651,0.10214 0.629666,0.29362 1.024226,0.13177 0.529129,0.48008 -1.150382,0.24007 -0.672309,0.88315 0.03028,0.0869 0.03966,0.18952 0.04289,0.29766 0.75275,0.16147 1.724959,-0.96842 1.724959,-0.96842 0,0 -0.134868,0.35476 -0.28267,0.83406 0.01373,-0.006 0.02273,-0.0108 0.03824,-0.0165 0.4811,0.23777 0.105976,0.29429 -0.106452,0.2403 -0.309393,1.07341 -0.602007,2.61567 0.170532,2.90525 0.965126,0.36174 1.604793,0.004 1.944065,-0.42478 -0.138689,-0.13907 -0.488772,-0.2502 -1.119311,-0.27337 0,0 0.416864,-0.12528 0.932243,-0.31833 0.135813,-0.14248 0.36681,-0.20245 0.619085,-0.25115 0.2157129,-0.0945 0.4284159,-0.19703 0.6226999,-0.30489 -0.04248,0.001 -0.08045,-0.001 -0.127124,0.003 0,0 0.52751,-0.41482 0.916741,-0.92811 -0.0048,-0.014 -0.0077,-0.028 -0.01447,-0.0419 -0.41434,-0.85003 -1.5378899,-0.8785 -1.5378899,-0.8785 0,0 0.9497079,-0.30405 1.6040359,-0.70538 -0.433879,-0.45359 -0.894003,-0.40825 -0.894003,-0.40825 0,0 0.380669,-0.32013 0.659908,-0.7276 -0.04438,-0.13523 -0.0999,-0.26303 -0.181383,-0.37207 -0.649819,-0.2895 -1.2061289,-0.33693 -1.2061289,-0.33693 0,0 0.3761839,-0.17789 0.8361249,-0.4222 -0.0737,-0.20569 -0.145788,-0.42673 -0.145211,-0.61598 -0.40568,-0.17973 -0.6914299,-0.17415 -0.6914299,-0.17415 0,0 0.4164909,-0.52252 0.7338059,-1.08469 -0.278559,-0.002 -0.506122,0.013 -0.6981509,0.0326 -0.01701,0.0145 -0.03501,0.0255 -0.05116,0.0419 -0.0055,-0.0124 -0.01238,-0.0219 -0.0181,-0.0341 -0.293682,0.0343 -0.490926,0.0755 -0.490926,0.0755 0,0 0.187735,-0.14958 0.366384,-0.29352 -0.362727,-0.49029 -1.082182,-0.64176 -1.692918,-0.77515 -0.291668,-0.28193 -0.799385,-0.21623 -1.220599,-0.23823 0.192995,-0.94708 1.388896,-1.08801 1.889291,-1.784908 -0.02648,-0.174887 -0.09715,-0.28757 -0.193786,-0.363286 -0.296166,0.204957 -0.434083,0.382405 -0.434083,0.382405 0,0 0.107471,-0.205904 0.223761,-0.481624 -0.562512,-0.138078 -1.532086,0.305499 -1.850017,-0.138493 0.244874,-0.537171 0.06929,-0.681747 -0.492993,-0.685745 z m -2.163693,1.003556 c 0.04592,0.0845 -0.04947,0.02069 0,0 z m 3.507798,0.743622 c 0.347276,0.672728 -0.503915,0.02199 0,0 z m -0.587047,2.507348 c 0.38677,0.19703 0.807434,0.48924 1.330669,0.48524 0.984869,-0.22251 0.968973,0.69865 0.994772,1.37873 0.607986,0.46583 0.687335,1.2808 1.0738359,1.85725 -0.1318869,0.4502 -0.8308339,1.92396 -1.0603999,0.96531 -1.061763,0.0349 -0.586997,-1.29911 -1.366843,-1.7756 0.28869,-0.55526 0.252172,-1.1627 0.690398,-1.55185 0.143465,-0.99985 -1.571,-0.48995 -1.662432,-1.35908 z m 1.224732,4.26433 c 0.05954,0.0159 0.0759,0.0764 -0.06976,0.005 0.02508,-0.01 0.04991,-0.01 0.06976,-0.005 z m 2.4339609,0.91106 c 0.03473,-0.007 0.05285,-0.005 0.05994,0 0.02196,0.0152 -0.05144,0.0611 -0.05994,0 z"
       id="path4980-3"
       inkscape:connector-curvature="0" />
    <path
       style="fill:#008900;fill-opacity:1;fill-rule:evenodd;stroke:none;stroke-width:0.26458332px;stroke-linecap:butt;stroke-linejoin:miter;stroke-opacity:1"
       d="m -10.21999,100.91562 c -0.872183,-0.0967 -1.837954,0.30845 -2.012897,1.00373 -0.174953,0.69532 1.036564,1.31865 1.036564,1.31865 0,0 -1.035323,-0.11188 -1.323242,0.54201 -0.287925,0.65388 -0.361696,2.10118 0.372149,1.96845 0.733909,-0.13279 1.266746,-0.56279 1.266746,-0.56279 0,0 -1.924373,1.66176 -1.246114,2.31277 0.678262,0.65102 1.794928,0.56934 2.089177,-0.0375 0.2942349,-0.60687 0.04425,0.32898 0.04425,0.32898 0,0 -0.80138,1.6271 -0.180027,1.85513 0.62136,0.22802 1.636881,-0.60565 1.636881,-0.60565 0,0 -1.634783,2.61694 -0.661863,3.06334 0.972934,0.44639 1.662578,-0.0154 1.931943,-0.40798 1.1875,0.7326 2.058358,-0.57395 0.727183,-0.58199 0,0 1.649087,-0.91394 1.340948,-1.6078 -0.308134,-0.69391 -0.897882,-0.68693 -0.897882,-0.68693 0,0 1.44212,-0.85575 0.876835,-1.46536 -0.565296,-0.60955 -1.16136,-0.64958 -1.16136,-0.64958 0,0 1.874213,-1.63549 0.9329,-1.84689 -0.9413,-0.21141 -1.442942,0.0513 -1.442942,0.0513 0,0 1.428213,-2.15658 0.644136,-1.99755 -0.78408,0.15906 -1.166419,0.51025 -1.166419,0.51025 0,0 1.19678,-1.48199 0.36213,-1.69893 -0.834665,-0.21693 -1.399114,-0.022 -1.399114,-0.022 0,0 1.065258,-1.26218 0.330939,-1.53167 -0.734333,-0.269473 -1.041226,0.24339 -1.041226,0.24339 0,0 0.606372,-2.344093 -0.723363,-1.784513 -1.487035,0.62572 -0.33641,2.289173 -0.33641,2.289173 z"
       id="path4435"
       inkscape:connector-curvature="0"
       sodipodi:nodetypes="cscsccsccscsccscccscccscccscc" />
    <path
       style="fill:#008e00;fill-opacity:1;fill-rule:evenodd;stroke:none;stroke-width:0.26458332px;stroke-linecap:butt;stroke-linejoin:miter;stroke-opacity:1"
       d="m -19.436602,105.42156 c -1.104826,0.27281 -2.243981,1.05421 -2.348074,1.77776 -0.104097,0.7236 1.510985,0.80234 1.510985,0.80234 0,0 -1.311005,0.32653 -1.562952,1.0584 -0.251952,0.73188 -0.106074,2.11709 0.788313,1.68722 0.894464,-0.42996 1.489004,-1.05433 1.489004,-1.05433 0,0 -2.129348,2.35673 -1.175486,2.68348 0.953868,0.32677 2.334607,-0.21478 2.602185,-0.9053 0.267568,-0.6905 0.109347,0.28946 0.109347,0.28946 0,0 -0.73298,1.85654 0.08028,1.81114 0.813269,-0.0454 1.944071,-1.2486 1.944071,-1.2486 0,0 -1.610725,3.13003 -0.322622,3.14257 1.288119,0.0125 2.073217,-0.7069 2.344968,-1.18651 0.256598,0.24361 0.483655,-0.72145 0.812199,-0.84754 0,0 1.908617,-1.5422 1.409806,-2.06322 -0.498803,-0.52106 -1.233964,-0.26889 -1.233964,-0.26889 0,0 1.659785,-1.40155 0.853781,-1.73661 -0.806013,-0.33501 -1.556787,-0.1242 -1.556787,-0.1242 0,0 2.07105,-2.31124 0.861042,-2.11701 -1.209985,0.19421 -1.793095,0.64899 -1.793095,0.64899 0,0 1.428523,-2.61315 0.475742,-2.13773 -0.952783,0.47544 -1.37238,0.96336 -1.37238,0.96336 0,0 1.2505,-1.88543 0.172757,-1.74081 -1.077759,0.14463 -1.750423,0.56218 -1.750423,0.56218 0,0 1.122447,-1.62493 0.161322,-1.57128 -0.961141,0.0537 -1.259959,0.66147 -1.259959,0.66147 0,0 0.371613,-2.44633 -1.196565,-1.36878 -1.753687,1.20496 -0.04358,2.28248 -0.04358,2.28248 z"
       id="path4437"
       inkscape:connector-curvature="0"
       sodipodi:nodetypes="cscsccsccscsccscccscccscccscc" />
    <path
       inkscape:connector-curvature="0"
       id="path4439"
       d="m -16.524018,142.61689 c 0,0 2.904553,0.16967 5.835652,-0.2627 2.9310989,-0.43237 8.8094369,-2.60682 8.8094369,-2.60682 0,0 -1.679681,1.29876 -4.320434,2.22234 -2.640751,0.92357 -8.9676099,1.47662 -9.8865369,1.56091 -0.918927,0.0843 -0.918927,0.0843 -0.918927,0.0843 z"
       style="fill:#9900c0;fill-opacity:1;fill-rule:evenodd;stroke:none;stroke-width:0.26458332px;stroke-linecap:butt;stroke-linejoin:miter;stroke-opacity:1" />
    <path
       sodipodi:nodetypes="cscccc"
       inkscape:connector-curvature="0"
       id="path4441"
       d="m 9.1722939,125.92406 c 0,0 -0.940552,2.22576 -3.3279,3.53492 -2.387352,1.30915 -7.425854,2.83422 -7.425854,2.83422 3.389992,-0.44291 6.271339,-1.74917 9.184624,-3.56789 0.913728,-0.43811 2.5460691,-2.55017 2.5460691,-2.55017 z"
       style="fill:#8f00b3;fill-opacity:1;fill-rule:evenodd;stroke:none;stroke-width:0.26458332px;stroke-linecap:butt;stroke-linejoin:miter;stroke-opacity:1" />
    <path
       sodipodi:nodetypes="cccc"
       inkscape:connector-curvature="0"
       id="path4443"
       d="m 20.125433,132.43685 c -1.543281,1.36817 -2.661661,2.19793 -5.304679,3.36678 2.631368,-0.47709 3.749018,-1.39234 5.836212,-2.63391 0.0857,-0.18991 -0.197084,-0.45605 -0.531533,-0.73287 z"
       style="fill:#8f00b3;fill-opacity:1;fill-rule:evenodd;stroke:none;stroke-width:0.26458332px;stroke-linecap:butt;stroke-linejoin:miter;stroke-opacity:1" />
    <path
       style="fill:#ddcdcd;fill-opacity:1;fill-rule:evenodd;stroke:none;stroke-width:0.26458332px;stroke-linecap:butt;stroke-linejoin:miter;stroke-opacity:1"
       d="m 24.861526,143.69916 c 0,0 -1.80135,2.40107 -4.1887,3.71023 -2.387354,1.30916 -7.425854,2.83422 -7.425854,2.83422 3.38999,-0.4429 6.27134,-1.74917 9.184624,-3.56788 0.91373,-0.43812 2.50466,-1.11062 2.50466,-1.11062 z"
       id="path4445"
       inkscape:connector-curvature="0"
       sodipodi:nodetypes="cscccc" />
    <path
       sodipodi:nodetypes="csccc"
       inkscape:connector-curvature="0"
       id="path4447"
       d="m -4.2502701,164.90411 c 0,0 3.224527,0.34992 5.907422,-0.1142 2.682895,-0.46411 7.57363,-2.4117 7.57363,-2.4117 -4.017914,1.80324 -7.428126,3.50028 -11.575359,3.2066 z"
       style="fill:#d9cece;fill-opacity:1;fill-rule:evenodd;stroke:none;stroke-width:0.26458332px;stroke-linecap:butt;stroke-linejoin:miter;stroke-opacity:1" />
    <path
       style="fill:#dbcfcf;fill-opacity:1;fill-rule:evenodd;stroke:none;stroke-width:0.26458332px;stroke-linecap:butt;stroke-linejoin:miter;stroke-opacity:1"
       d="m 20.690166,157.77416 c -2.622745,2.82603 -4.660822,3.68504 -8.405983,4.85099 2.266079,-0.29606 4.192151,-1.16925 6.139561,-2.38499 0.610788,-0.29287 0.829738,-0.60328 0.829738,-0.60328 z"
       id="path4449"
       inkscape:connector-curvature="0"
       sodipodi:nodetypes="ccccc" />
    <path
       sodipodi:nodetypes="cssscscssscccsscsssssssssssssssscscsscsscssscc"
       inkscape:connector-curvature="0"
       id="path4361-7"
       d="m 7.5449819,127.66726 c -0.385911,0.54802 -3.715764,3.13051 -6.454835,4.14349 -2.739059,1.01299 -4.802161,0.28988 -6.322072,0.98709 -1.519912,0.6972 -6.6811809,3.5517 -7.6900999,3.24933 -1.008925,-0.30237 -1.525271,0.29389 -1.525271,0.29389 0,0 1.898148,1.45962 3.695028,1.87587 1.7968769,0.41628 3.1571909,0.85889 3.1571909,0.85889 0,0 0.54319,1.42032 -1.458539,2.02552 -2.0017479,0.6052 -4.0088469,0.80708 -2.9546699,1.22782 1.054192,0.42074 4.1899159,-0.33365 5.8563649,0.13091 1.666436,0.4645 3.151821,0.45556 3.151821,0.45556 l -1.333474,1.57397 2.499665,0.69676 c 0,0 0.606902,-0.35956 -1.730136,1.31534 -2.337037,1.67491 -2.150596,2.55166 -1.141676,2.85403 1.008925,0.30237 2.36924,0.74498 2.36924,0.74498 0,0 -8.2946629,0.50072 -7.9325249,1.4476 0.3621339,0.94687 3.3382589,1.33231 4.9087989,1.15679 1.570555,-0.17554 1.847521,0.93793 2.515777,1.90669 0.668261,0.96877 1.717084,0.98617 2.72600603,1.28855 1.00892,0.30237 1.49074197,0.39438 2.47050697,1.78834 0.979752,1.39396 1.546751,1.31936 2.555678,1.62174 1.008922,0.30238 1.461582,1.48597 1.773081,1.91118 0.311491,0.42518 3.4241611,7.78537 5.2502011,7.11004 1.826041,-0.67532 -0.22942,-4.10328 0.0952,-5.97961 0.324548,-1.87634 1.588968,-2.07375 3.268491,-3.91079 1.679479,-1.83704 1.378709,-1.45561 0.375168,-1.35466 -1.003549,0.101 -2.353109,0.46495 -0.237069,-1.39843 2.11609,-1.86338 2.15061,-2.55165 0.540149,-2.09117 -1.610428,0.46049 -6.3327991,0.18046 -4.68784,-0.9683 1.644971,-1.14877 3.795591,-3.70042 2.445999,-3.33641 -1.349589,0.36402 -5.5740091,1.38593 -3.111918,-0.74053 2.462088,-2.12645 2.62169,-3.26628 2.62169,-3.26628 0,0 -4.2643401,1.30689 -3.181011,0.63604 1.08336,-0.67088 5.294,-6.01091 5.294,-6.01091 0,0 0.260872,-0.0966 -1.264391,0.19743 -1.525288,0.29389 -2.063117,-0.72311 -2.880238,0.25459 -0.81711,0.9777 -4.3203411,0.38188 -4.3203411,0.38188 0,0 2.99993,-1.10947 3.8170511,-2.08715 0.817099,-0.9777 0.119689,-0.85488 -1.5360101,-0.51275 -1.65573,0.34213 -3.678922,-0.66593 -3.678922,-0.66593 0,0 2.03623,-1.29347 2.37691,-1.95986 0.340673,-0.66639 -3.628277,-0.14427 -1.291248,-1.81916 2.33704,-1.67491 1.92732,0.36803 2.762858,-2.50788 0.8355411,-2.87592 1.1202221,-4.4673 1.1202221,-4.4673 z"
       style="opacity:0.15400002;fill:#ffffff;fill-opacity:1;fill-rule:evenodd;stroke:none;stroke-width:0.36895472px;stroke-linecap:butt;stroke-linejoin:miter;stroke-opacity:1"
       inkscape:transform-center-x="11.284133"
       inkscape:transform-center-y="-19.623504" />
    <path
       style="opacity:0.11300001;fill:#000000;fill-opacity:1;fill-rule:evenodd;stroke:none;stroke-width:0.26184773px;stroke-linecap:butt;stroke-linejoin:miter;stroke-opacity:1"
       d="m 9.7036029,125.91784 c 0,0 0.7001381,1.4709 2.1861781,3.13829 1.486033,1.66737 0.519872,0.40417 2.284521,0.58045 1.76466,0.17625 -0.36,1.51307 0.0558,1.83629 0.41579,0.32317 1.890789,0.35962 1.890789,0.35962 0,0 -0.604409,1.57924 -1.53747,2.04934 -0.933069,0.47011 -1.318289,0.68329 -0.554058,1.02117 0.764228,0.33789 2.638758,-0.16916 2.638758,-0.16916 0,0 -1.478359,1.92457 -2.242608,1.58669 -0.764231,-0.33787 -0.643742,0.60965 -1.49529,1.05774 -0.851591,0.44803 -0.688951,0.40399 -0.688951,0.40399 0,0 4.05195,1.95388 4.830339,1.96124 0.778369,0.007 -1.78485,0.91815 -1.78485,0.91815 0,0 0.50592,0.73453 2.500921,1.17522 1.99499,0.44069 -0.44187,1.5352 -1.234401,1.8584 -0.792541,0.32311 1.210771,1.19751 2.441552,1.30034 1.230749,0.1028 -0.958872,2.32804 -1.914383,2.69532 -0.0725,0.0276 -0.135458,0.0566 -0.193698,0.0856 -0.12056,-0.0432 -0.0933,-0.019 -0.0933,-0.019 0,0 0.02331,0.052 0.02429,0.0555 -0.459028,0.25842 -0.35216,0.55417 0.37106,0.83778 0.629322,1.41014 1.84282,4.06484 2.28056,4.54793 0.599472,0.66158 -1.884169,-0.86529 -1.884169,-0.86529 0,0 -0.008,0.93841 1.298789,2.92816 1.306592,1.98973 -1.17901,0.69747 -1.969558,0.25438 -0.790551,-0.44309 0.286499,1.85605 1.18469,2.96573 0.898189,1.10967 -2.01223,0.81421 -2.953152,0.2644 -0.940938,-0.54984 -0.983718,0.01 0.135922,1.74893 1.119618,1.73904 0.329268,1.29639 -0.27432,1.104 -0.603592,-0.19236 -0.752282,-0.53383 0.103158,1.1357 0.160901,0.31392 0.315492,0.56915 0.464971,0.80365 0.804511,-1.03818 1.477669,-1.79872 1.477669,-1.79872 -0.009,-0.016 -0.0204,-0.0309 -0.0307,-0.0462 5.255904,-4.64842 9.083964,-12.74706 7.383834,-20.56982 -1.59578,-7.30331 -7.933223,-13.08484 -14.002574,-14.97781 z"
       id="path4902-1"
       inkscape:connector-curvature="0"
       sodipodi:nodetypes="cscscccccccccsccccccccccsccccccccccc" />
    <path
       style="color:#000000;clip-rule:nonzero;display:inline;overflow:visible;visibility:visible;opacity:0.13300003;isolation:auto;mix-blend-mode:normal;color-interpolation:sRGB;color-interpolation-filters:linearRGB;solid-color:#000000;solid-opacity:1;fill:#000000;fill-opacity:1;fill-rule:nonzero;stroke:none;stroke-width:0.31431636px;stroke-linecap:butt;stroke-linejoin:miter;stroke-miterlimit:4;stroke-dasharray:none;stroke-dashoffset:0;stroke-opacity:1;marker:none;color-rendering:auto;image-rendering:auto;shape-rendering:auto;text-rendering:auto;enable-background:accumulate"
       d="m -11.934225,101.4247 c -0.0071,0.007 -0.01479,0.0136 -0.0217,0.0207 0.617006,0.57908 1.292659,1.62747 1.671733,2.51302 0.8364139,0.67015 0.8710269,1.65601 0.5270999,1.99523 0.523619,1.00673 0.573342,1.36379 0.313677,1.43919 -0.158766,0.0441 -0.310348,0.0216 -0.456821,-0.0393 -0.0181,0.15266 -0.09302,0.43615 -0.09302,0.43615 0,0 -0.02453,0.0552 -0.03101,0.0687 0.2729497,0.16152 0.5340987,0.32259 0.7431087,0.50178 0.42599,0.6944 -0.282578,0.86745 -1.1187957,0.94619 0.02037,0.16074 0.08519,0.28668 0.226343,0.33848 0.6213607,0.22802 1.6371087,-0.60564 1.6371087,-0.60564 0,0 -0.419888,0.67411 -0.70745,1.39629 0.145494,0.006 0.305924,0.0124 0.305924,0.0124 -0.16319,0.0697 -0.290811,0.1406 -0.390673,0.21084 -0.07489,0.21366 -0.129913,0.42418 -0.157612,0.61908 0.382667,0.33415 1.591159,0.34234 2.169893,-0.60823 0.140835,0.0507 0.308186,0.0921 0.48524,0.12558 0.221689,-0.0148 0.466037,0.0142 0.713137,0.0491 0.465791,-0.32219 1.125265,-0.87688 0.91984,-1.33945 -0.03934,-0.0886 -0.08352,-0.16482 -0.130226,-0.23203 0.03384,0.13744 -0.08525,0.26083 -0.290938,-0.14315 0.0747,-0.0185 0.132749,-0.0113 0.178284,0.008 -0.302577,-0.31989 -0.655256,-0.31988 -0.655256,-0.31988 0,0 0.370612,-0.22028 0.66249,-0.51676 -1.216404,-0.74129 -2.796728,-1.37149 -2.796728,-1.37149 0,0 1.511221,0.22017 2.423107,-0.0341 -0.326139,-0.17376 -0.57309,-0.19275 -0.57309,-0.19275 0,0 0.109006,-0.10009 0.216006,-0.20103 -1.452751,-0.37763 -2.682849,-1.48754 -2.454114,-1.90789 -0.538747,-0.33042 -0.915696,-0.5326 -0.793231,-1.11363 -1.0464907,-0.0825 -1.5381847,-1.53054 -2.5223287,-2.05568 z m 0.307994,4.55218 c -0.01109,1.8e-4 -0.02201,0.005 -0.03307,0.007 -0.02792,0.0331 -0.05635,0.0626 -0.08372,0.0966 0.08612,0.78125 0.79026,1.23017 1.489316,1.64228 0.09115,-0.0717 0.166068,-0.15849 0.216006,-0.26148 0.03108,-0.0641 0.05299,-0.1028 0.07286,-0.13539 -0.629859,-0.31585 -1.156295,-1.35688 -1.661395,-1.34876 z m 0.289388,0.16588 c 0.235172,0.18212 -0.02612,0.27484 0,0 z m 3.2576819,1.78852 c 0.344689,0.14117 1.47855,0.69804 1.185974,1.13792 -0.840312,0.10158 -1.086308,-0.36775 -1.185974,-1.13792 z"
       id="path4961-4"
       inkscape:connector-curvature="0" />
    <path
       style="opacity:0.13300003;fill:#000000;fill-opacity:1;fill-rule:evenodd;stroke:none;stroke-width:0.26458332px;stroke-linecap:butt;stroke-linejoin:miter;stroke-miterlimit:4;stroke-dasharray:none;stroke-dashoffset:0;stroke-opacity:1"
       d="m -0.81750507,126.56896 c 1.164812,-4.2913 0.355819,-10.37522 -1.18340403,-14.19455 1.11888203,4.98607 1.78129603,8.15628 0.148512,12.596 -0.04664,-4.04253 -0.629915,-6.03668 -1.24142,-7.58903 0.581872,2.73516 0.872605,4.12983 0.661242,8.48662 -1.076551,-5.93224 -2.256469,-7.43206 -3.664529,-10.31968 1.602812,4.92219 2.53835,7.15477 2.604552,9.89164 -3.950937,-3.16769 -5.492893,-9.0443 -6.7466329,-15.58733 1.3106229,7.60737 0.9281299,10.2382 5.4312189,15.83904 -5.016437,-3.16706 -5.002288,-4.83762 -7.3069939,-8.46636 2.7849169,6.66635 1.851018,5.49134 7.3152279,10.41403 -2.089353,-1.34371 -3.884526,-2.46036 -5.3018429,-4.23223 0.2430199,0.87053 2.1830319,2.77385 4.0010579,3.73861 2.102111,1.80401 5.25640903,0.69757 5.28301203,-0.57676 z"
       id="path4934-6"
       inkscape:connector-curvature="0"
       sodipodi:nodetypes="cccccccccccccc" />
    <path
       style="color:#000000;clip-rule:nonzero;display:inline;overflow:visible;visibility:visible;opacity:0.13300003;isolation:auto;mix-blend-mode:normal;color-interpolation:sRGB;color-interpolation-filters:linearRGB;solid-color:#000000;solid-opacity:1;fill:#000000;fill-opacity:1;fill-rule:nonzero;stroke:none;stroke-width:0.26458332px;stroke-linecap:butt;stroke-linejoin:miter;stroke-miterlimit:4;stroke-dasharray:none;stroke-dashoffset:0;stroke-opacity:1;marker:none;color-rendering:auto;image-rendering:auto;shape-rendering:auto;text-rendering:auto;enable-background:accumulate"
       d="m -2.2877841,103.55325 c 0.422331,0.38409 0.769364,1.20189 0.875398,1.90945 0.57401403,0.44881 0.337537,1.25298 -0.06563,1.57251 0.199718,0.76244 0.147775,1.0495 -0.107487,1.14257 -0.911754,0.32389 -1.025927,-1.16269 -1.710489,-0.86248 -0.276042,1.00695 1.048377,1.16261 1.593702,1.63608 0.292074,0.77067 -1.36743,0.89923 -2.375048,1.13429 -0.01865,0.0456 -0.03477,0.0935 -0.04651,0.14573 -0.04066,0.18097 0.118345,0.33328 0.359153,0.45889 0.825445,0.0471 1.805057,-0.0682 1.805057,-0.0682 -0.342604,0.15801 -0.552755,0.30188 -0.667661,0.4253 0.265378,0.0544 0.467157,0.0847 0.467157,0.0847 0.09561,0.0619 0.124161,0.1838 0.145211,0.30437 0.440264,-0.079 1.0033,-0.33023 1.46140703,-0.82785 0.113541,0.0246 0.253678,0.0377 0.404628,0.0439 0.219969,-0.0417 0.449159,-0.046 0.679545,-0.0465 0.187013,-0.0311 0.384884,-0.0808 0.58704397,-0.14882 -0.30433897,-0.43638 -0.91690497,-0.89762 -1.31154697,-1.17048 -0.150503,-0.0196 -0.240096,-0.0892 -0.291455,-0.19378 -0.01027,-0.006 -0.07131,-0.0476 -0.07131,-0.0476 0,0 0.04537,0.0108 0.05529,0.0134 -0.05509,-0.14609 -0.04606,-0.35141 0.0026,-0.6041 0.264104,0.0718 1.085633,0.37382 0.79375,0.75137 0.401799,0.0464 0.85418097,0.0513 1.14463197,-0.10232 0.358606,-0.18972 0.05427,-0.61577 -0.267168,-0.94516 -0.76561697,-0.30673 -1.53582197,-0.50643 -1.53582197,-0.50643 0,0 0.421503,-7.9e-4 0.948778,-0.0594 -0.131123,-0.16813 -0.297167,-0.40571 0.05736,-0.13074 0.05137,0.0399 0.112313,0.0717 0.177766,0.0992 0.48506797,-0.0672 1.01479897,-0.18272 1.38079397,-0.39171 -0.02164,-0.0335 -0.04569,-0.0667 -0.07493,-0.0982 -1.47998597,0.0588 -2.56963897,-0.86572 -2.20555097,-1.28778 -0.39725,-0.20609 -0.683119,-0.32689 -0.414443,-0.81804 -0.95357403,0.0601 -0.97467703,-1.14695 -1.79420603,-1.41231 z m -0.669726,3.82716 c 0.163105,0.12102 -0.09832,0.2285 0,0 z"
       id="path4961-1"
       inkscape:connector-curvature="0" />
    <path
       style="color:#000000;clip-rule:nonzero;display:inline;overflow:visible;visibility:visible;opacity:0.13300003;isolation:auto;mix-blend-mode:normal;color-interpolation:sRGB;color-interpolation-filters:linearRGB;solid-color:#000000;solid-opacity:1;fill:#000000;fill-opacity:1;fill-rule:nonzero;stroke:none;stroke-width:0.26458332px;stroke-linecap:butt;stroke-linejoin:miter;stroke-miterlimit:4;stroke-dasharray:none;stroke-dashoffset:0;stroke-opacity:1;marker:none;color-rendering:auto;image-rendering:auto;shape-rendering:auto;text-rendering:auto;enable-background:accumulate"
       d="m -13.577533,107.29308 c -0.221094,0.0668 -0.404897,0.13816 -0.555006,0.20567 -0.02857,0.4095 -0.209368,0.99693 -0.162264,1.26504 -0.289301,0.004 -0.497774,0.36627 -0.158647,0.49971 0.03515,0 0.0687,-0.002 0.10077,-0.007 0.06494,-0.11259 0.625469,-1.09556 0.771011,-1.71824 0.0034,-0.068 0.0074,-0.15936 0.0041,-0.24546 z m -2.37195,1.37252 c -0.03743,-0.002 -0.07591,0.005 -0.115755,0.0202 -0.04556,0.0177 -0.09274,0.0481 -0.142627,0.0946 0.384609,0.34224 0.578649,0.87846 0.45992,1.00356 0.181018,0.40944 0.843905,0.44926 0.759643,0.96945 -0.305721,0.007 -0.59436,0.32064 -0.914154,0.19275 0.09908,0.0543 -0.652674,0.40047 -0.726054,0.32867 0.387406,0.17597 0.712949,0.62289 1.173054,0.40359 0.18165,-0.23972 0.373486,-0.28258 0.668176,-0.10284 0.137988,0.17836 0.371864,0.76095 0.155546,1.10846 0.118716,0.51086 -0.172569,-0.12702 -0.294555,-0.2713 -0.35878,-0.10735 -0.372769,0.24035 -0.132808,0.27285 -0.324678,0.10423 -0.270047,0.63037 0.172083,0.73691 0.617799,-0.0162 0.07748,0.48651 -0.168466,0.62425 -0.08394,0.41827 -0.415449,0.55208 -0.666626,0.88367 -0.204882,0.0328 -0.492551,0.29518 -0.48886,0.53226 1.221682,-0.0287 1.97071,-0.71785 2.234489,-1.18339 0.09079,0.0862 0.177974,0.0177 0.267168,-0.108 0.01582,-0.038 0.03391,-0.0776 0.04547,-0.11266 0.01082,-0.002 0.02029,-0.005 0.03101,-0.007 0.140185,-0.23575 0.288833,-0.55128 0.468189,-0.62011 0,0 0.337034,-0.27659 0.690398,-0.63046 -0.140253,0.0318 -0.322588,0.10781 -0.564309,0.25839 0,0 0.94479,-1.17277 1.081591,-1.85622 -0.298792,-0.18627 -0.626317,-0.17815 -0.830959,-0.14728 -0.175135,0.32697 -0.264067,0.71062 -0.694531,0.73484 -0.294375,0.4137 -0.16461,-0.0721 -0.30644,-0.21859 -0.223367,-0.37825 -0.569299,-0.76827 -0.658358,-1.15859 -0.547656,-0.41571 -0.860298,-0.91244 -0.717269,-1.37614 -0.309751,0.0171 -0.522952,-0.36089 -0.784966,-0.37207 z m 2.920235,0.51057 c -0.07608,0.15431 0.0263,0.41079 -0.09767,0.57205 -0.01492,0.44564 -0.663565,0.55857 -0.522965,0.9648 0.234828,0.30981 0.59831,0.1946 0.860412,-0.0543 -0.308359,0.051 -0.539501,0.19482 -0.539501,0.19482 0,0 0.879975,-1.14075 0.75344,-1.62212 -0.161996,-0.0334 -0.315269,-0.0512 -0.453718,-0.0553 z m 0.504878,1.46502 c -0.01445,0.0157 -0.02611,0.035 -0.03772,0.0543 0.01815,-0.0187 0.03378,-0.0332 0.05219,-0.0527 -0.0048,-2.6e-4 -0.0097,-0.001 -0.01447,-0.002 z m -0.998387,0.20309 -0.01291,0.005 z m -0.372588,1.15652 0.03824,0.0506 c 0.373116,-0.1355 -0.04922,0.24039 -0.03824,-0.0506 z m -2.304251,0.51521 c -0.152967,0.0597 -0.301316,0.14276 -0.412896,0.26562 -0.0062,0.0485 -0.02045,0.0931 -0.03824,0.13591 0.182372,-0.14645 0.341418,-0.29035 0.456303,-0.39998 -0.0021,-2.6e-4 -0.0031,-0.001 -0.0052,-0.002 z m 0.09715,0.0253 c -0.08567,0.17531 -0.208053,0.43772 -0.368969,0.86093 0.263059,-0.33547 0.443899,-0.6227 0.443899,-0.6227 0,0 -0.04674,0.18696 -0.08217,0.3266 0.232161,-0.17367 0.359156,-0.45985 0.0072,-0.56483 z"
       id="path4990-5"
       inkscape:connector-curvature="0" />
  </g>
</svg>
